<?xml version="1.0" encoding="utf-8"?>
<!-- Generator: Adobe Illustrator 19.1.0, SVG Export Plug-In . SVG Version: 6.00 Build 0)  -->
<svg version="1.1" id="Layer_1" xmlns="http://www.w3.org/2000/svg" xmlns:xlink="http://www.w3.org/1999/xlink" x="0px" y="0px"
	 viewBox="0 0 1280 720" style="enable-background:new 0 0 1280 720;" xml:space="preserve">
<style type="text/css">
	.st0{fill:#F1563B;}
	.st1{fill:#FFFFFF;}
</style>
<path class="st0" d="M548.7,335c0,0-24.4,24.4,0,48.8l66.6,66.6c0,0,24.4,24.4,48.8,0l66.6-66.6c0,0,24.4-24.4,0-48.8L664,268.5
	c0,0-24.4-24.4-48.8,0L548.7,335z"/>
<path class="st1" d="M522.9,462L420.1,359.2l102.3-102.3c0,0,24.4-24.4,0-48.8l-36.2-36.2c0,0-24.4-24.4-48.8,0L274.5,334.8
	c0,0-24.4,24.4,0,48.8l36.2,36.2c0,0,0.1,0.1,0.2,0.2l127,127c0,0,24.4,24.4,48.8,0l36.2-36.2C522.9,510.8,547.3,486.4,522.9,462z"
	/>
<path class="st1" d="M1005.3,335.1l-36.2-36.2l-220-220c0,0-24.4-24.4-48.8,0l-36.2,36.2c0,0-24.4,24.4,0,48.8l195.5,195.5
	L664.3,554.8c0,0-24.4,24.4,0,48.8l36.2,36.2c0,0,24.4,24.4,48.8,0l256-256C1005.3,383.8,1029.7,359.4,1005.3,335.1z"/>
</svg>
