<?xml version="1.0" encoding="utf-8"?>
<!-- Generator: Adobe Illustrator 19.1.0, SVG Export Plug-In . SVG Version: 6.00 Build 0)  -->
<svg version="1.1" id="Layer_1" xmlns="http://www.w3.org/2000/svg" xmlns:xlink="http://www.w3.org/1999/xlink" x="0px" y="0px"
	 viewBox="0 0 841.9 595.3" style="enable-background:new 0 0 841.9 595.3;" xml:space="preserve">
<style type="text/css">
	.st0{fill:#F1563B;}
	.st1{fill:#FFFFFF;}
</style>
<g>
	<path class="st0" d="M107.2,292.1c0,0-5.3,5.3,0,10.5l14.4,14.4c0,0,5.3,5.3,10.5,0l14.4-14.4c0,0,5.3-5.3,0-10.5l-14.4-14.4
		c0,0-5.3-5.3-10.5,0L107.2,292.1z"/>
	<path class="st1" d="M101.6,319.5l-22.2-22.2l22.1-22.1c0,0,5.3-5.3,0-10.5l-7.8-7.8c0,0-5.3-5.3-10.5,0L47.9,292
		c0,0-5.3,5.3,0,10.5l7.8,7.8c0,0,0,0,0,0l27.4,27.4c0,0,5.3,5.3,10.5,0l7.8-7.8C101.6,330.1,106.9,324.8,101.6,319.5z"/>
	<path class="st1" d="M205.8,292.1l-7.8-7.8l-47.5-47.5c0,0-5.3-5.3-10.5,0l-7.8,7.8c0,0-5.3,5.3,0,10.5l42.2,42.2l-42.2,42.2
		c0,0-5.3,5.3,0,10.5l7.8,7.8c0,0,5.3,5.3,10.5,0l55.3-55.3C205.8,302.6,211.1,297.4,205.8,292.1z"/>
	<g>
		<path class="st1" d="M226.8,297.6v-0.3c0-22.6,17.3-41.2,41.5-41.2c12.4,0,21,3.5,27.8,9.4c1.3,1.2,1.9,2.5,1.9,3.8
			c0,1.3-0.6,2.7-1.8,4l-6.2,6.6c-1.3,1.3-2.7,2.1-4,2.1c-1.2,0-2.5-0.6-4-1.8c-3.8-3.1-8-4.9-13.9-4.9c-11.2,0-19.2,9.9-19.2,21.6
			v0.3c0,12.1,7.8,21.8,20.1,21.8c5.6,0,9.9-1.8,14-4.9c1.3-1,2.7-1.6,4-1.6c1.3,0,2.7,0.6,4,1.9l5.5,5.5c1.5,1.5,2.1,3,2.1,4.3
			c0,0.9-0.3,1.9-1.2,2.8c-7.1,6.8-15.5,11.4-29.4,11.4C244.3,338.5,226.8,320.2,226.8,297.6z"/>
		<path class="st1" d="M303.1,263.2c0-3.7,1.9-5.6,5.6-5.6h11.2c3.7,0,5.6,1.9,5.6,5.6v67.9c0,3.7-1.9,5.6-5.6,5.6h-11.2
			c-3.7,0-5.6-1.9-5.6-5.6V263.2z"/>
		<path class="st1" d="M333.6,263.2c0-3.7,1.9-5.6,5.6-5.6h11.2c3.7,0,5.6,1.9,5.6,5.6v5.6c5.2-6.6,12-12.7,23.3-12.7
			c10.3,0,18.2,4.6,22.3,12.5c6.9-8.1,15.2-12.5,26-12.5c16.7,0,26.7,10,26.7,29.1v45.9c0,3.7-1.9,5.6-5.6,5.6h-11.2
			c-3.7,0-5.6-1.9-5.6-5.6v-38.5c0-10.6-4.7-16.1-13.1-16.1c-8.4,0-13.6,5.5-13.6,16.1v38.5c0,3.7-1.9,5.6-5.6,5.6h-11.2
			c-3.7,0-5.6-1.9-5.6-5.6v-38.5c0-10.6-4.7-16.1-13.1-16.1c-8.4,0-13.6,5.5-13.6,16.1v38.5c0,3.7-1.9,5.6-5.6,5.6h-11.2
			c-3.7,0-5.6-1.9-5.6-5.6V263.2z"/>
		<path class="st1" d="M462.4,263.2c0-3.7,1.9-5.6,5.6-5.6h11.2c3.7,0,5.6,1.9,5.6,5.6v5.8c5.5-7.4,13-12.8,24.7-12.8
			c18.5,0,36,14.5,36,40.9v0.3c0,26.4-17.3,40.9-36,40.9c-12,0-19.3-5.5-24.7-11.8v28.3c0,3.7-1.9,5.6-5.6,5.6h-11.2
			c-3.7,0-5.6-1.9-5.6-5.6V263.2z M523.1,297.3V297c0-13.1-8.9-21.8-19.3-21.8c-10.5,0-19.2,8.7-19.2,21.8v0.3
			c0,13.1,8.7,21.8,19.2,21.8C514.3,319.2,523.1,310.6,523.1,297.3z"/>
		<path class="st1" d="M550,263.2c0-3.7,1.8-5.6,5.6-5.6h11.1c3.7,0,5.8,1.9,5.8,5.6v5.9c2.4-5.9,9.6-11.2,19.5-12.7
			c3.7-0.6,5.6,1.8,5.6,5.5v10.9c0,5.6-2.1,6.3-6.1,6.9c-14.3,2.2-19,14.5-19,27.9v23.6c0,3.7-2.1,5.6-5.8,5.6h-11.1
			c-3.8,0-5.6-1.9-5.6-5.6V263.2z"/>
		<path class="st1" d="M595.2,297.6v-0.3c0-22.6,16.1-41.2,39.1-41.2c26.4,0,38.5,20.5,38.5,43v0.4c0,3.5-2.2,5.5-5.8,5.5h-49.6
			c2.2,10.2,9.3,15.5,19.3,15.5c5.9,0,10.5-1.5,15.2-4.7c1.5-1,2.8-1.6,4.1-1.6c1.2,0,2.5,0.6,3.7,1.6l4.7,4.3
			c1.6,1.3,2.5,2.8,2.5,4.3c0,1-0.6,2.1-1.5,3c-7.1,7.1-16.7,11.2-29.1,11.2C612.8,338.5,595.2,321.8,595.2,297.6z M651,291
			c-1.3-10-7.2-16.8-16.7-16.8c-9.3,0-15.4,6.6-17.1,16.8H651z"/>
		<path class="st1" d="M675,329.5c-1.8-1.2-2.7-2.8-2.7-4.4c0-1,0.4-2.2,1.2-3.4l3.5-5.5c1.2-1.9,2.7-2.8,4.4-2.8
			c1,0,2.2,0.4,3.4,1.2c7.1,4.1,14.2,6.3,20.2,6.3c6.5,0,9.4-2.4,9.4-5.9v-0.3c0-4.3-6.1-6.1-13.4-8.3c-0.9-0.3-1.9-0.6-3-0.9
			c-11.1-3.2-23.6-8.4-23.6-23.8v-0.3c0-16.1,13-25.1,28.9-25.1c8.3,0,17.1,2.4,24.8,6.3c2.1,1,3.1,2.5,3.1,4.3c0,1-0.4,2.2-1,3.4
			l-3.2,5.8c-1.2,2.1-2.7,3.1-4.4,3.1c-0.9,0-2.1-0.3-3.2-0.9c-6.1-3-11.8-4.7-16.4-4.7c-5.5,0-8.3,2.4-8.3,5.5v0.3
			c0,4.4,7.5,6.5,16.1,9.4c11.1,3.7,23.9,9,23.9,23.5v0.3c0,17.6-13.1,25.5-30.3,25.5C694.9,338.2,684.5,335.4,675,329.5z"/>
		<path class="st1" d="M738.3,329.5c-1.8-1.2-2.7-2.8-2.7-4.4c0-1,0.4-2.2,1.2-3.4l3.5-5.5c1.2-1.9,2.7-2.8,4.4-2.8
			c1,0,2.2,0.4,3.4,1.2c7.1,4.1,14.2,6.3,20.2,6.3c6.5,0,9.4-2.4,9.4-5.9v-0.3c0-4.3-6.1-6.1-13.4-8.3c-0.9-0.3-1.9-0.6-3-0.9
			c-11.1-3.2-23.6-8.4-23.6-23.8v-0.3c0-16.1,13-25.1,28.9-25.1c8.3,0,17.1,2.4,24.8,6.3c2.1,1,3.1,2.5,3.1,4.3c0,1-0.4,2.2-1,3.4
			l-3.2,5.8c-1.2,2.1-2.7,3.1-4.4,3.1c-0.9,0-2.1-0.3-3.2-0.9c-6.1-3-11.8-4.7-16.4-4.7c-5.5,0-8.3,2.4-8.3,5.5v0.3
			c0,4.4,7.5,6.5,16.1,9.4c11.1,3.7,23.9,9,23.9,23.5v0.3c0,17.6-13.1,25.5-30.3,25.5C758.2,338.2,747.7,335.4,738.3,329.5z"/>
	</g>
	<g>
		<path class="st1" d="M800.6,257.8h-2.6v-1.7h7v1.7h-2.6v6.7h-1.8V257.8z"/>
		<path class="st1" d="M806.5,256.1h2l2.2,3.6l2.2-3.6h2v8.4H813v-5.5l-2.4,3.6h0l-2.3-3.5v5.4h-1.8V256.1z"/>
	</g>
</g>
</svg>
